Coordinates
version=1
nRows=15
nColumns=34
inDegrees=no

Units are S.I. units (second, meters, Newtons, ...)
If the header above contains a line with 'inDegrees', this indicates whether rotational values are in degrees (yes) or radians (no).

endheader
time	pelvis_tilt	pelvis_list	pelvis_rotation	pelvis_tx	pelvis_ty	pelvis_tz	hip_flexion_r	hip_adduction_r	hip_rotation_r	knee_angle_r	ankle_angle_r	subtalar_angle_r	mtp_angle_r	hip_flexion_l	hip_adduction_l	hip_rotation_l	knee_angle_l	ankle_angle_l	subtalar_angle_l	mtp_angle_l	lumbar_extension	lumbar_bending	lumbar_rotation	arm_flex_r	arm_add_r	arm_rot_r	elbow_flex_r	pro_sup_r	arm_flex_l	arm_add_l	arm_rot_l	elbow_flex_l	pro_sup_l
0.37	-0.0704846	-0.162838	-0.0270224	0.309096	1.05174	-0.152571	0.0599523	0.20464	-0.041108	0.141858	0.229472	0.16563	-0.000470841	0.608693	-0.22283	-0.0603761	1.11104	0.158522	-0.137335	-0.000494295	-0.0981153	0.145353	-0.048175	-0.171274	-0.155785	-0.198553	0.748754	1.69372	-0.242248	-0.200388	0.0739397	0.801468	1.65325
0.38	-0.0702172	-0.160379	-0.0287872	0.319116	1.05071	-0.151849	0.0490245	0.20287	-0.0373412	0.144196	0.241678	0.16448	-0.000469985	0.615909	-0.217483	-0.0600819	1.06756	0.165342	-0.13218	-0.000493392	-0.102264	0.137985	-0.050318	-0.16993	-0.157052	-0.195206	0.752527	1.69413	-0.250858	-0.197777	0.0626942	0.783001	1.65359
0.39	-0.0696205	-0.158171	-0.0298884	0.329185	1.04955	-0.151194	0.0378824	0.201303	-0.0334363	0.146693	0.253981	0.162381	-0.00046913	0.621515	-0.212262	-0.0595321	1.02076	0.168823	-0.128123	-0.00049249	-0.106743	0.130736	-0.0531034	-0.168922	-0.158433	-0.191581	0.756485	1.69501	-0.259423	-0.195397	0.0504211	0.765902	1.65455
0.4	-0.0686534	-0.156102	-0.0303179	0.339316	1.0483	-0.150598	0.0264257	0.199828	-0.0296467	0.149309	0.266443	0.159894	-0.000468275	0.625373	-0.207155	-0.0591335	0.970675	0.168409	-0.124591	-0.000491587	-0.111586	0.123456	-0.0565204	-0.168294	-0.159831	-0.187722	0.760608	1.69631	-0.267976	-0.193329	0.0372957	0.750254	1.6557
0.41	-0.0673175	-0.154047	-0.0300909	0.349523	1.04695	-0.150051	0.0145942	0.198319	-0.0262866	0.152006	0.279122	0.157631	-0.00046742	0.627381	-0.202141	-0.0593385	0.91732	0.163567	-0.120832	-0.000490685	-0.116782	0.115981	-0.0605627	-0.168085	-0.16116	-0.183639	0.76486	1.69792	-0.276567	-0.191639	0.0234918	0.736125	1.65657
0.42	-0.0656585	-0.151892	-0.0292494	0.359821	1.04552	-0.149544	0.00237616	0.196656	-0.0236973	0.154753	0.292064	0.1562	-0.000466565	0.627485	-0.197194	-0.0605721	0.860721	0.15387	-0.115943	-0.000489783	-0.122271	0.108148	-0.0652248	-0.168326	-0.162347	-0.179309	0.769194	1.6997	-0.285265	-0.19038	0.00916469	0.723568	1.65675
0.43	-0.063757	-0.149544	-0.0278656	0.370222	1.04401	-0.14906	-0.0101911	0.194736	-0.0222112	0.157523	0.305294	0.15615	-0.00046571	0.625689	-0.192279	-0.0631433	0.800945	0.139099	-0.108934	-0.000488881	-0.127957	0.0998185	-0.0704973	-0.169031	-0.163345	-0.174682	0.773549	1.70148	-0.294157	-0.189577	-0.00556242	0.712638	1.65586
0.44	-0.0617156	-0.14694	-0.0260401	0.38074	1.04243	-0.148584	-0.0230309	0.192478	-0.0221179	0.160307	0.318818	0.157929	-0.000464855	0.622051	-0.187349	-0.0671551	0.738137	0.11937	-0.0988233	-0.000487979	-0.133719	0.090879	-0.0763609	-0.170197	-0.164129	-0.169695	0.777851	1.70311	-0.303338	-0.189231	-0.0206061	0.703388	1.65368
0.45	-0.0596399	-0.144039	-0.023898	0.391385	1.04078	-0.148101	-0.0360415	0.189824	-0.0236361	0.163119	0.332615	0.161858	-0.000464001	0.616665	-0.18235	-0.0724304	0.672567	0.0952375	-0.0847749	-0.000487077	-0.139436	0.0812501	-0.0827811	-0.171799	-0.164698	-0.164278	0.782016	1.70448	-0.312903	-0.189316	-0.0359219	0.695869	1.65004
0.46	-0.057619	-0.140822	-0.0215837	0.402168	1.03906	-0.147592	-0.0491087	0.186729	-0.0268899	0.166004	0.346638	0.168114	-0.000463146	0.609656	-0.177218	-0.0784722	0.604676	0.0677732	-0.0662528	-0.000486175	-0.145005	0.070879	-0.0897046	-0.173788	-0.165067	-0.158368	0.785949	1.70553	-0.322933	-0.189787	-0.0514945	0.69012	1.64494
0.47	-0.0557139	-0.137289	-0.0192518	0.413099	1.03728	-0.147046	-0.0621167	0.183155	-0.0318921	0.169049	0.360812	0.176716	-0.000462292	0.601173	-0.171889	-0.0844781	0.535114	0.0385693	-0.0431691	-0.000485274	-0.150356	0.0597314	-0.0970574	-0.176096	-0.165267	-0.15192	0.789556	1.70626	-0.333484	-0.190586	-0.0673211	0.686153	1.6384
0.48	-0.0539637	-0.133447	-0.0170563	0.424188	1.03545	-0.14645	-0.0749543	0.179068	-0.0385318	0.172387	0.375033	0.18752	-0.000461438	0.591387	-0.166318	-0.0894198	0.464772	0.00965479	-0.0159882	-0.000484372	-0.155453	0.0477897	-0.104744	-0.178644	-0.165333	-0.144907	0.792745	1.70677	-0.344571	-0.191658	-0.0833893	0.683933	1.63051
0.49	-0.0523872	-0.129294	-0.0151432	0.435441	1.03357	-0.145801	-0.0875146	0.17444	-0.0465718	0.176191	0.389167	0.200221	-0.000460584	0.580502	-0.160501	-0.0921928	0.394792	-0.0166905	0.0142465	-0.000483471	-0.160292	0.0350539	-0.112651	-0.181349	-0.165304	-0.13733	0.795437	1.70716	-0.356161	-0.192956	-0.0996555	0.68336	1.62137
0.5	-0.0509865	-0.124826	-0.0136468	0.446865	1.03166	-0.1451	-0.0996894	0.169254	-0.0556505	0.180665	0.40305	0.214357	-0.000459731	0.568771	-0.154485	-0.0918197	0.326553	-0.0382094	0.0459888	-0.00048257	-0.164885	0.0215413	-0.120645	-0.184136	-0.165215	-0.129215	0.797574	1.7076	-0.368167	-0.19445	-0.116026	0.68426	1.6111
0.51	-0.0497567	-0.120046	-0.0126867	0.45846	1.02975	-0.144353	-0.111365	0.163508	-0.0652934	0.186031	0.416485	0.229328	-0.000458877	0.556514	-0.148384	-0.0876726	0.261631	-0.0529965	0.0773675	-0.00048167	-0.169237	0.00728871	-0.128577	-0.186954	-0.165096	-0.120621	0.799133	1.70825	-0.38045	-0.196136	-0.132348	0.686376	1.59979
